<svg width="16" height="16" viewBox="0 0 16 16" fill="none" xmlns="http://www.w3.org/2000/svg">
    <path d="M7.74994 6.5C7.97975 6.5 8.20731 6.45474 8.41963 6.36679C8.63195 6.27884 8.82487 6.14994 8.98737 5.98744C9.14988 5.82493 9.27878 5.63202 9.36673 5.4197C9.45467 5.20738 9.49994 4.97981 9.49994 4.75C9.49994 4.52019 9.45467 4.29262 9.36673 4.0803C9.27878 3.86798 9.14988 3.67507 8.98737 3.51256C8.82487 3.35006 8.63195 3.22116 8.41963 3.13321C8.20731 3.04527 7.97975 3 7.74994 3C7.28581 3 6.84069 3.18437 6.5125 3.51256C6.18431 3.84075 5.99994 4.28587 5.99994 4.75C5.99994 5.21413 6.18431 5.65925 6.5125 5.98744C6.84069 6.31563 7.28581 6.5 7.74994 6.5ZM5.99994 8.25C5.99994 7.91848 6.13163 7.60054 6.36605 7.36612C6.60047 7.1317 6.91842 7 7.24994 7H11.2499C11.5815 7 11.8994 7.1317 12.1338 7.36612C12.3682 7.60054 12.4999 7.91848 12.4999 8.25V10.75C12.4999 10.9142 12.4676 11.0767 12.4048 11.2284C12.342 11.38 12.2499 11.5178 12.1338 11.6339C12.0177 11.75 11.8799 11.842 11.7283 11.9048C11.5766 11.9677 11.4141 12 11.2499 12H7.24994C7.08579 12 6.92324 11.9677 6.77158 11.9048C6.61993 11.842 6.48213 11.75 6.36605 11.6339C6.24998 11.5178 6.15791 11.38 6.09509 11.2284C6.03227 11.0767 5.99994 10.9142 5.99994 10.75V8.25ZM3.52344 7.4315V11.5945C3.5235 11.6686 3.54553 11.7411 3.58674 11.8027C3.62795 11.8643 3.68649 11.9123 3.75498 11.9406C3.82346 11.969 3.89881 11.9764 3.97151 11.962C4.04421 11.9475 4.11099 11.9119 4.16344 11.8595L5.39794 10.6255C5.46828 10.5552 5.50785 10.4599 5.50794 10.3605V8.656C5.50789 8.60653 5.49806 8.55756 5.47901 8.51191C5.45996 8.46626 5.43207 8.42483 5.39694 8.39L4.16244 7.165C4.10985 7.11287 4.04301 7.07748 3.97034 7.06328C3.89767 7.04909 3.82243 7.05672 3.75409 7.08522C3.68575 7.11372 3.62738 7.16181 3.58634 7.22344C3.54529 7.28506 3.5234 7.35746 3.52344 7.4315ZM12.4999 5.25C12.4999 5.58152 12.3682 5.89946 12.1338 6.13388C11.8994 6.3683 11.5815 6.5 11.2499 6.5C10.9184 6.5 10.6005 6.3683 10.3661 6.13388C10.1316 5.89946 9.99994 5.58152 9.99994 5.25C9.99994 4.91848 10.1316 4.60054 10.3661 4.36612C10.6005 4.1317 10.9184 4 11.2499 4C11.5815 4 11.8994 4.1317 12.1338 4.36612C12.3682 4.60054 12.4999 4.91848 12.4999 5.25Z" fill="#001671"/>
    <path d="M3 0.5C2.6717 0.5 2.34661 0.564664 2.04329 0.690301C1.73998 0.815938 1.46438 1.00009 1.23223 1.23223C0.763392 1.70107 0.5 2.33696 0.5 3V13C0.5 13.663 0.763392 14.2989 1.23223 14.7678C1.46438 14.9999 1.73998 15.1841 2.04329 15.3097C2.34661 15.4353 2.6717 15.5 3 15.5H13C13.663 15.5 14.2989 15.2366 14.7678 14.7678C15.2366 14.2989 15.5 13.663 15.5 13V3C15.5 2.6717 15.4353 2.34661 15.3097 2.04329C15.1841 1.73998 14.9999 1.46438 14.7678 1.23223C14.5356 1.00009 14.26 0.815938 13.9567 0.690301C13.6534 0.564664 13.3283 0.5 13 0.5H3ZM1.5 3C1.5 2.60218 1.65804 2.22064 1.93934 1.93934C2.22064 1.65804 2.60218 1.5 3 1.5H13C13.3978 1.5 13.7794 1.65804 14.0607 1.93934C14.342 2.22064 14.5 2.60218 14.5 3V13C14.5 13.3978 14.342 13.7794 14.0607 14.0607C13.7794 14.342 13.3978 14.5 13 14.5H3C2.60218 14.5 2.22064 14.342 1.93934 14.0607C1.65804 13.7794 1.5 13.3978 1.5 13V3Z" fill="#001671"/>
</svg>
